<?xml version="1.0" standalone="no"?>
<!DOCTYPE svg PUBLIC "-//W3C//DTD SVG 20010904//EN"
 "http://www.w3.org/TR/2001/REC-SVG-20010904/DTD/svg10.dtd">
<svg version="1.0" xmlns="http://www.w3.org/2000/svg"
 width="218.000000pt" height="218.000000pt" viewBox="0 0 218.000000 218.000000"
 preserveAspectRatio="xMidYMid meet">
<metadata>
Created by potrace 1.14, written by Peter Selinger 2001-2017
</metadata>
<g transform="translate(0.000000,218.000000) scale(0.100000,-0.100000)"
fill="#000000" stroke="none">
<path d="M677 1923 c-12 -11 -8 -40 7 -52 17 -14 46 -4 46 16 0 33 114 -13
179 -73 33 -29 89 -121 79 -128 -2 -1 -21 -9 -43 -17 -31 -11 -41 -22 -49 -48
-11 -38 5 -115 30 -142 13 -14 11 -21 -12 -63 l-26 -46 -29 20 c-46 33 -109
102 -136 148 -29 49 -41 144 -25 191 8 23 7 32 -4 42 -23 19 -42 3 -50 -43
-25 -141 28 -250 186 -382 l45 -37 -105 54 c-58 29 -157 86 -220 127 -295 188
-447 231 -507 141 -19 -28 -22 -44 -20 -109 3 -91 22 -136 78 -186 82 -75 205
-108 409 -109 125 -1 305 9 320 18 3 2 33 6 66 9 32 3 79 12 103 20 55 20 114
20 177 1 27 -8 76 -18 109 -21 33 -3 62 -8 65 -9 13 -8 186 -19 295 -19 150 0
218 9 306 39 150 51 210 131 206 279 -2 66 -6 79 -27 101 -71 71 -217 25 -500
-155 -125 -80 -221 -133 -275 -155 l-40 -15 30 22 c94 71 172 177 191 258 17
77 -3 180 -36 180 -23 0 -30 -19 -17 -44 18 -36 2 -150 -28 -201 -27 -47 -86
-110 -136 -146 l-27 -19 -24 43 -24 43 19 37 c10 20 21 55 24 76 5 35 2 44
-25 71 -17 16 -40 30 -51 30 -25 0 -26 6 -6 54 24 57 84 116 150 148 66 31 95
35 95 14 0 -15 27 -25 48 -19 17 6 15 52 -3 59 -18 7 -145 -30 -184 -54 -51
-31 -101 -81 -124 -125 l-23 -43 -34 14 c-28 11 -40 11 -74 0 l-41 -14 -17 36
c-39 80 -130 146 -243 175 -64 17 -69 18 -78 8z"/>
<path d="M1004 1246 c-44 -22 -89 -34 -189 -51 -16 -2 -86 -7 -155 -10 -150
-6 -272 -15 -279 -20 -3 -1 -24 -6 -46 -9 -60 -10 -142 -53 -149 -79 -11 -43
-6 -75 20 -113 54 -79 105 -108 189 -108 53 1 168 31 200 54 6 3 32 19 60 35
l50 29 -20 -30 c-70 -106 -91 -211 -60 -303 17 -53 38 -72 57 -53 7 7 5 26 -7
62 -35 104 0 212 105 323 35 37 64 66 66 64 2 -1 -3 -37 -10 -80 -17 -94 -14
-175 9 -253 19 -66 85 -217 97 -222 5 -2 8 -8 8 -14 0 -10 76 -132 117 -187
l26 -33 64 98 c119 181 189 345 196 461 4 55 -2 126 -18 205 -6 32 -5 32 57
-32 113 -118 149 -221 113 -330 -18 -54 -11 -78 19 -67 19 7 46 97 46 151 0
52 -22 123 -52 172 -14 22 -27 44 -31 50 -3 6 40 -13 97 -41 56 -28 109 -52
117 -53 132 -13 173 -4 229 50 72 71 91 138 52 182 -20 23 -84 53 -131 61 -19
3 -37 8 -41 10 -7 4 -117 12 -300 20 -95 5 -186 16 -245 30 -45 10 -74 21
-100 37 -41 25 -102 23 -161 -6z"/>
</g>
</svg>
